<?xml version="1.0" encoding="UTF-8"?>
<svg version="1.1" xmlns="http://www.w3.org/2000/svg" width="5700" height="1366">
<path d="M0 0 C1.53333984 1.21429688 1.53333984 1.21429688 3.09765625 2.453125 C8.6507761 6.92061382 13.96449683 11.60950407 19.19921875 16.4453125 C21.37234571 18.42749525 23.56953926 20.35775545 25.796875 22.27734375 C30.23682323 26.15099073 34.40866094 30.26110616 38.5625 34.4375 C39.27857422 35.14970703 39.99464844 35.86191406 40.73242188 36.59570312 C45.36176644 41.23347234 49.73159603 46.03027924 54 51 C54.9256505 52.04814213 55.85265181 53.09509347 56.78125 54.140625 C69.38075993 68.4799797 80.78186518 83.87979782 91 100 C91.42700195 100.67144043 91.85400391 101.34288086 92.29394531 102.03466797 C134.4999303 168.79154503 158.45275189 246.79149695 157 326 C155.25035276 323.37552914 154.56187279 321.9015813 153.7734375 318.96484375 C153.55059082 318.16449707 153.32774414 317.36415039 153.09814453 316.53955078 C152.74018799 315.25153564 152.74018799 315.25153564 152.375 313.9375 C146.67047344 294.26561297 137.57784177 276.19546864 125 260 C124.31292969 259.10796875 123.62585938 258.2159375 122.91796875 257.296875 C95.47143767 222.6796286 55.80137461 203.28612007 12.5 197.53515625 C9.66072884 197.25953551 6.85083341 197.09183357 4 197 C2.95585938 196.96003906 1.91171875 196.92007812 0.8359375 196.87890625 C-27.81954575 196.31897152 -55.89731876 203.29521916 -81 217 C-82.60488281 217.86625 -82.60488281 217.86625 -84.2421875 218.75 C-120.8262075 239.27506057 -147.9631574 274.4440006 -159.41015625 314.72827148 C-169.77652206 353.28269361 -166.66174935 394.09864987 -149 430 C-148.54004639 430.94649414 -148.54004639 430.94649414 -148.07080078 431.91210938 C-128.99977141 470.70667613 -94.79383128 499.36378342 -54.0625 513.3125 C-13.26501945 526.65840013 31.68806863 523.13011476 70.05761719 503.97265625 C84.97473553 496.24885671 97.93888008 486.63999143 110 475 C110.84046875 474.22269531 111.6809375 473.44539062 112.546875 472.64453125 C125.05374342 460.75504009 134.32020734 446.35958533 142 431 C142.66 431.33 143.32 431.66 144 432 C130.39746249 480.26182806 110.75953541 526.35230486 81 567 C80.26571777 568.00595215 80.26571777 568.00595215 79.51660156 569.03222656 C71.28719719 580.25698801 62.73284629 591.13897465 53.3359375 601.41796875 C52.06349746 602.82446183 50.7972297 604.23708262 49.56445312 605.6784668 C44.70839082 611.34459804 39.52421792 616.66194529 34.24951172 621.93579102 C32.76106763 623.42641615 31.28082723 624.92487017 29.80078125 626.42382812 C24.25860389 631.99771281 18.5720404 637.17446202 12.40209961 642.06542969 C10.12018774 643.90320483 7.95932796 645.81983838 5.8125 647.8125 C-0.13687996 653.17881913 -6.65458899 657.83425891 -13.10644531 662.57128906 C-15.44268682 664.3340128 -17.7210272 666.16407912 -20 668 C-19.24307861 668.24008789 -18.48615723 668.48017578 -17.70629883 668.72753906 C30.86764582 684.24609137 80.349148 704.61237713 117.52441406 740.57568359 C118.54604193 741.56181479 119.57453111 742.54086854 120.60839844 743.51416016 C139.89835158 761.67839462 156.3138277 786.32543064 157.203125 813.65234375 C157.61460376 841.16933508 149.23638922 864.32592085 131 885 C130.18660156 885.94617188 129.37320313 886.89234375 128.53515625 887.8671875 C122.42546636 894.85817788 122.42546636 894.85817788 119 896 C118.97421875 895.01902344 118.9484375 894.03804687 118.921875 893.02734375 C117.58376417 857.10490525 96.26042792 828.84887663 70.875 805.0625 C59.24745121 794.39090446 46.43559971 785.24021725 33 777 C33.33773437 778.17433594 33.67546875 779.34867188 34.0234375 780.55859375 C44.09058325 816.49871776 40.61822737 852.39900668 22.74072266 885.31884766 C13.76486608 901.19408155 2.63461511 914.92011212 -10 928 C-10.59893066 928.62084473 -11.19786133 929.24168945 -11.81494141 929.88134766 C-19.4873484 937.79135177 -27.26443818 945.25497984 -36 952 C-36.89847656 952.72703125 -37.79695312 953.4540625 -38.72265625 954.203125 C-53.15590023 965.68886856 -68.79510688 975.77344587 -84.75 985 C-85.62462891 985.51030762 -86.49925781 986.02061523 -87.40039062 986.54638672 C-88.61758789 987.23498779 -88.61758789 987.23498779 -89.859375 987.9375 C-90.56545898 988.33839844 -91.27154297 988.73929688 -91.99902344 989.15234375 C-94 990 -94 990 -98 990 C-97.3569035 985.83273465 -96.01404453 982.01915736 -94.62548828 978.05737305 C-84.38555865 948.7741594 -80.61854447 915.48083523 -88 885 C-88.19867676 884.17177734 -88.39735352 883.34355469 -88.60205078 882.49023438 C-96.11500847 852.16827479 -110.36061921 825.57859002 -132 803 C-132.804375 802.13246094 -133.60875 801.26492188 -134.4375 800.37109375 C-162.74423059 770.75854672 -204.66705754 752.95351926 -245.4453125 751.71875 C-293.11502438 750.87854945 -336.15382573 766.04040204 -371 799 C-371.87140625 799.80695312 -372.7428125 800.61390625 -373.640625 801.4453125 C-403.23702385 829.77329425 -421.04619449 871.65760433 -422.28125 912.4453125 C-422.73588709 938.23965304 -419.79127138 963.15101493 -408.8828125 986.8203125 C-408 989 -408 989 -408 992 C-413.50762687 990.41877809 -418.26533037 987.88468036 -423.25 985.125 C-424.56629395 984.3968811 -424.56629395 984.3968811 -425.90917969 983.65405273 C-444.82903621 973.02906678 -462.48257662 960.0463128 -479 946 C-479.74636719 945.36578125 -480.49273437 944.7315625 -481.26171875 944.078125 C-494.71253677 932.2943863 -507.62383597 919.60501816 -518 905 C-518.64074463 904.1018457 -518.64074463 904.1018457 -519.29443359 903.18554688 C-541.39621243 871.87263563 -552.76946524 835.37715715 -546.38134766 797.02929688 C-543.59136469 782.18272938 -543.59136469 782.18272938 -541 777 C-576.13220219 798.13886742 -613.64570619 830.99164842 -624.5390625 872.03027344 C-627.19547526 883.38193561 -627.24293148 894.46089284 -626 906 C-639.60903789 898.32466244 -650.74436316 884.07933269 -659 871 C-659.65226563 869.98550781 -660.30453125 868.97101562 -660.9765625 867.92578125 C-670.12733825 853.03143348 -674.59444856 837.07391316 -674.4375 819.625 C-674.43065186 818.44542725 -674.42380371 817.26585449 -674.41674805 816.05053711 C-674.25233632 807.10518427 -673.19922193 799.4123803 -670 791 C-669.63777344 789.98679687 -669.27554688 788.97359375 -668.90234375 787.9296875 C-664.00296723 775.2079166 -657.0235542 764.16429525 -648 754 C-647.13246094 753.01128906 -646.26492188 752.02257812 -645.37109375 751.00390625 C-607.53972355 708.44870511 -551.17541096 684.87091352 -498 668 C-500.87540192 664.98351527 -503.88273339 662.51270377 -507.25 660.0625 C-519.23844152 651.15513176 -530.62337342 641.67308648 -541.47949219 631.41894531 C-543.90665129 629.15390859 -546.3992495 626.96167045 -548.875 624.75 C-579.40950129 597.0177156 -604.26043665 562.00120363 -624 526 C-624.46825195 525.15775879 -624.93650391 524.31551758 -625.41894531 523.44775391 C-641.85699868 493.72437589 -666.58852167 446.83792355 -665 412 C-663.24573642 414.63139537 -662.05208895 417.13271142 -660.84448242 420.0378418 C-652.60615623 439.78934197 -641.71927872 456.44324508 -627 472 C-626.23171875 472.82113281 -625.4634375 473.64226563 -624.671875 474.48828125 C-596.26553757 503.94840216 -554.63517071 520.47113817 -514.03613281 521.28564453 C-488.03484308 521.50225631 -463.39846336 516.46687356 -440 505 C-439.31486328 504.67161133 -438.62972656 504.34322266 -437.92382812 504.00488281 C-400.11673541 485.72624708 -371.80108201 452.33310414 -357.71875 413.03515625 C-355.4301706 406.42824549 -353.47571117 399.84387791 -352 393 C-351.77787842 392.00226563 -351.77787842 392.00226563 -351.55126953 390.984375 C-344.13296575 356.48806461 -349.49875439 319.50965598 -365 288 C-365.45995361 287.05350586 -365.45995361 287.05350586 -365.92919922 286.08789062 C-384.57959153 248.14898993 -417.90330787 220.13108723 -457.44775391 205.86816406 C-498.37235586 191.94737924 -542.9509349 194.54899684 -581.91796875 213.3203125 C-597.16066161 220.94468688 -610.31258415 230.69055515 -623 242 C-623.77730469 242.69222656 -624.55460938 243.38445312 -625.35546875 244.09765625 C-654.29952544 271.4600705 -666.96604009 308.72862407 -673 347 C-673.33 347 -673.66 347 -674 347 C-674.6518 292.01281172 -674.6518 292.01281172 -671 268 C-670.82839355 266.82888672 -670.65678711 265.65777344 -670.47998047 264.45117188 C-664.56641534 224.90057186 -653.30350187 186.09607004 -636 150 C-635.63422852 149.23365234 -635.26845703 148.46730469 -634.89160156 147.67773438 C-632.98360881 143.7112593 -631.01149058 139.78340522 -628.97705078 135.88037109 C-627.9598889 133.92280468 -626.96217549 131.95601535 -625.96484375 129.98828125 C-616.56262503 111.6273447 -605.36887607 94.4864205 -593 78 C-592.5555957 77.40251953 -592.11119141 76.80503906 -591.65332031 76.18945312 C-585.15174049 67.46404316 -578.19756244 59.15660161 -571 51 C-570.35998047 50.27095459 -569.71996094 49.54190918 -569.06054688 48.79077148 C-563.32902574 42.33373314 -557.34752103 36.16129577 -551.24414062 30.05883789 C-549.6285932 28.44109808 -548.02124966 26.81549364 -546.4140625 25.18945312 C-539.92083229 18.66156574 -533.22422724 12.72087202 -526 7 C-524.16390858 5.44074195 -522.32995036 3.87896067 -520.5 2.3125 C-500.91541258 -13.97442553 -479.53552702 -27.86098972 -457.09423828 -39.87060547 C-455.08034756 -40.95666964 -453.08413 -42.06984017 -451.08984375 -43.19140625 C-402.56433596 -70.16076217 -345.1814963 -85.18018243 -290 -89 C-289.22897949 -89.05639648 -288.45795898 -89.11279297 -287.66357422 -89.17089844 C-184.57856266 -96.49233864 -80.72808598 -64.43867258 0 0 Z " fill="#06ACB9" transform="translate(674,90)"/>
<path d="M0 0 C1.12985321 0.00090637 1.12985321 0.00090637 2.28253174 0.00183105 C90.14056434 0.1909268 174.5380082 27.14936194 242.35205078 83.61425781 C244.05527532 85.02608942 245.77269045 86.41764902 247.49609375 87.8046875 C255.82983966 94.61807921 263.43911724 102.16485164 271.0625 109.75 C271.59865936 110.28089233 272.13481873 110.81178467 272.68722534 111.35876465 C279.68315628 118.30151446 286.10215483 125.46895103 292.25 133.1875 C293.1848008 134.28931012 294.12616425 135.38563795 295.078125 136.47265625 C336.15030294 183.57316999 361.20367854 243.94300103 371 305.25 C371.19875732 306.4779126 371.39751465 307.7058252 371.60229492 308.97094727 C374.66501954 329.14449602 375.6344799 349.3648975 375.5625 369.75 C375.55976578 371.37485321 375.55976578 371.37485321 375.55697632 373.03253174 C375.32752975 454.47186306 350.62396565 535.82036409 298.25 599.1875 C297.81139648 599.71939941 297.37279297 600.25129883 296.92089844 600.79931641 C290.8836402 608.09591887 284.6495036 615.20622335 278.25 622.1875 C277.74678223 622.74115234 277.24356445 623.29480469 276.72509766 623.86523438 C265.28685139 636.44220649 265.28685139 636.44220649 259.44921875 641.30078125 C257.03160558 643.37486146 254.73169365 645.54874133 252.4206543 647.73999023 C245.04174774 654.71559014 237.38118052 661.11033809 229.25 667.1875 C228.56953613 667.69780762 227.88907227 668.20811523 227.18798828 668.73388672 C162.8403849 716.73553506 86.50126754 740.37209748 6.4375 740.4375 C5.67564392 740.43817474 4.91378784 740.43884949 4.12884521 740.43954468 C-84.07715234 740.31789221 -173.66559437 712.05091465 -239.2734375 651.453125 C-240.61369964 650.22701768 -241.96122271 649.00786532 -243.3449707 647.83105469 C-249.6673463 642.44017854 -255.52381141 636.59979501 -261.39477539 630.72802734 C-263.17510252 628.94988228 -264.96328377 627.17990439 -266.75195312 625.41015625 C-273.55090839 618.64459196 -279.82194979 611.73900922 -285.75 604.1875 C-286.75054745 602.96729019 -287.75404297 601.74948598 -288.76171875 600.53515625 C-341.28290829 536.38853314 -367.05729098 456.32630189 -366.9375 373.8125 C-366.93689575 373.03269775 -366.9362915 372.25289551 -366.93566895 371.44946289 C-366.740186 277.68440146 -332.3639665 186.34850996 -268.75 117.1875 C-267.27035559 115.52125745 -265.79119744 113.85458298 -264.3125 112.1875 C-257.24834244 104.34800808 -249.79798218 97.00925723 -241.75 90.1875 C-240.81800781 89.37796875 -239.88601563 88.5684375 -238.92578125 87.734375 C-172.88481471 30.63948652 -87.06439656 -0.1311906 0 0 Z M-44.75 73.1875 C-45.75450195 73.37022461 -46.75900391 73.55294922 -47.79394531 73.74121094 C-76.74359317 79.09834723 -104.53031493 88.86583704 -130.75 102.1875 C-131.57983398 102.60854004 -132.40966797 103.02958008 -133.26464844 103.46337891 C-150.82083477 112.51111877 -167.44047331 123.72578764 -182.75 136.1875 C-183.26401367 136.60531738 -183.77802734 137.02313477 -184.30761719 137.45361328 C-196.17729704 147.15556462 -207.96222182 157.35611979 -217.75 169.1875 C-219.04744141 170.65316406 -219.04744141 170.65316406 -220.37109375 172.1484375 C-261.49928013 218.66611716 -285.04661547 277.81325962 -291.75 339.1875 C-291.84571289 340.03505859 -291.94142578 340.88261719 -292.04003906 341.75585938 C-297.95377681 401.65629982 -286.89859335 462.00889541 -258.75 515.1875 C-258.41033203 515.83493164 -258.07066406 516.48236328 -257.72070312 517.14941406 C-247.40503921 536.65696844 -234.00999377 554.59170733 -219.0078125 570.74609375 C-217.07656147 572.83438422 -215.2168194 574.95841534 -213.375 577.125 C-206.16425607 585.40968451 -198.19826901 593.17543672 -189.75 600.1875 C-189.23050781 600.62610352 -188.71101563 601.06470703 -188.17578125 601.51660156 C-145.97438878 637.0803578 -95.66892466 660.90395592 -40.75 668.1875 C-40.10798645 668.27330322 -39.4659729 668.35910645 -38.80450439 668.44750977 C-25.03914733 670.2337056 -11.36934683 670.58853658 2.5 670.5625 C3.59505859 670.56195618 4.69011719 670.56141235 5.81835938 670.56085205 C23.94678161 670.5196091 41.40894687 669.57137309 59.25 666.1875 C60.3445752 665.98382812 61.43915039 665.78015625 62.56689453 665.5703125 C87.61742657 660.73841943 112.41101453 652.56228055 135.25 641.1875 C136.63541992 640.50300781 136.63541992 640.50300781 138.04882812 639.8046875 C161.945284 627.91210667 184.776493 613.57706899 204.25 595.1875 C205.49596449 594.12027054 206.74593956 593.05770443 208 592 C217.99989651 583.25769696 227.09163537 573.66029432 235.25 563.1875 C236.12857473 562.09763941 237.00886862 561.00916308 237.890625 559.921875 C287.24394148 498.71646897 308.57793038 417.34222101 300.88623047 339.50634766 C296.55194664 299.46319009 286.30196094 261.82796773 267.25 226.1875 C266.91709961 225.55505371 266.58419922 224.92260742 266.24121094 224.27099609 C256.86297041 206.55012169 245.23348249 190.42937064 232.25 175.1875 C231.54101562 174.34703125 230.83203125 173.5065625 230.1015625 172.640625 C218.96960081 159.88066891 206.78601395 147.38744252 193.25 137.1875 C192.10080644 136.28742282 190.95242761 135.38630483 189.8046875 134.484375 C141.44198913 96.8904708 78.57174069 70.28004266 16.6171875 69.984375 C15.63059647 69.97731537 14.64400543 69.97025574 13.6275177 69.96298218 C-15.70512432 69.63582329 -15.70512432 69.63582329 -44.75 73.1875 Z " fill="#06ACB9" transform="translate(1363.75,163.8125)"/>
<path d="M0 0 C7.88215176 7.363231 15.35943158 14.970311 22.50415039 23.04736328 C23.28435547 23.91844727 23.28435547 23.91844727 24.08032227 24.80712891 C41.61448733 44.40413692 56.42957245 65.84691537 69.24438477 88.79492188 C70.04344288 90.22362539 70.84870922 91.64888863 71.66235352 93.06933594 C83.95931193 114.55648153 92.71522957 138.30360763 99.50415039 162.04736328 C99.91721436 163.48909912 99.91721436 163.48909912 100.33862305 164.95996094 C108.92258079 195.56521113 112.59020517 227.34003486 113.50415039 259.04736328 C113.52751465 259.80210937 113.55087891 260.55685547 113.57495117 261.33447266 C115.055117 316.51107447 104.30006091 371.41689661 82.50415039 422.04736328 C82.17092773 422.8243457 81.83770508 423.60132813 81.49438477 424.40185547 C69.2711932 452.50507334 51.992501 478.47749019 32.50415039 502.04736328 C31.69719727 503.02833984 30.89024414 504.00931641 30.05883789 505.02001953 C17.0689832 520.67001141 3.0353977 535.88667477 -12.49584961 549.04736328 C-13.5099408 549.93546548 -14.52285751 550.82490969 -15.53491211 551.71533203 C-29.65071812 564.07430513 -44.71254751 574.91974443 -60.49584961 585.04736328 C-61.10686523 585.43988281 -61.71788086 585.83240234 -62.34741211 586.23681641 C-90.56565749 604.17375041 -121.31640482 617.17473902 -153.49584961 626.04736328 C-154.99801025 626.46260254 -154.99801025 626.46260254 -156.53051758 626.88623047 C-249.87429137 652.13732803 -357.9766696 641.27117084 -442.08837891 593.00537109 C-457.66224607 583.93156593 -472.40591155 574.30210807 -486.49584961 563.04736328 C-487.30771729 562.40323486 -487.30771729 562.40323486 -488.13598633 561.74609375 C-493.90974869 557.15430276 -499.4695535 552.36036953 -504.91381836 547.38330078 C-506.33871248 546.09421352 -507.76998673 544.81169273 -509.22705078 543.55908203 C-514.86948864 538.7063451 -520.17422219 533.56097121 -525.43334961 528.29736328 C-526.31925781 527.41137451 -527.20516602 526.52538574 -528.11791992 525.61254883 C-533.29712086 520.38784067 -538.19810363 515.14204895 -542.71069336 509.32861328 C-544.48203545 507.06501638 -546.35887698 504.97080738 -548.30834961 502.85986328 C-558.16762288 491.86373543 -566.57348 479.48538367 -574.49584961 467.04736328 C-574.86242676 466.47260254 -575.22900391 465.8978418 -575.60668945 465.30566406 C-582.97973653 453.63249981 -589.31162686 441.38145199 -595.49584961 429.04736328 C-595.89803711 428.25330078 -596.30022461 427.45923828 -596.71459961 426.64111328 C-612.93521082 394.19989087 -621.63856078 357.78006078 -626.49584961 322.04736328 C-626.66576416 320.80140381 -626.66576416 320.80140381 -626.83911133 319.53027344 C-636.31300196 246.8971119 -623.7827962 170.64129634 -591.49584961 105.04736328 C-590.99714355 104.03077637 -590.4984375 103.01418945 -589.98461914 101.96679688 C-579.28503201 80.34816122 -567.09684109 59.78086786 -551.99829102 40.93505859 C-550.5303527 39.09071361 -549.09295079 37.22656866 -547.66381836 35.35205078 C-538.58398344 23.48376735 -528.39096234 12.8605033 -517.88101196 2.25830078 C-516.47701048 0.84142453 -515.07658103 -0.57898852 -513.67626953 -1.99951172 C-507.59523215 -8.08765631 -501.24121637 -13.61508574 -494.49584961 -18.95263672 C-493.33861003 -19.89413001 -492.18219086 -20.83663394 -491.02709961 -21.78076172 C-411.05248393 -85.6780062 -309.17574037 -110.46267371 0 0 Z M-306.49584961 -27.95263672 C-307.44186035 -27.78634766 -308.38787109 -27.62005859 -309.36254883 -27.44873047 C-359.79033921 -18.5044024 -408.22461686 4.13609433 -447.49584961 37.04736328 C-448.50131836 37.86849609 -449.50678711 38.68962891 -450.54272461 39.53564453 C-464.74423353 51.2826489 -478.34457672 64.34189982 -489.49584961 79.04736328 C-490.68307617 80.54396484 -490.68307617 80.54396484 -491.89428711 82.07080078 C-541.82679484 145.2065229 -563.12708669 228.20463776 -553.89819336 307.86865234 C-546.04456503 369.91612861 -522.09820988 425.17093103 -479.81616211 471.50439453 C-478.19417309 473.28202896 -476.58584505 475.07218149 -474.98803711 476.87158203 C-470.75645889 481.61431419 -466.52640094 486.10970392 -461.65600586 490.19580078 C-459.0405399 492.43762875 -456.56300796 494.80742056 -454.05834961 497.17236328 C-436.98149553 512.99066308 -417.1057986 526.29547831 -396.49584961 537.04736328 C-395.63765625 537.50079102 -394.77946289 537.95421875 -393.89526367 538.42138672 C-367.22362342 552.35766786 -339.11519936 561.0453763 -309.49584961 566.04736328 C-308.54661621 566.22235352 -307.59738281 566.39734375 -306.61938477 566.57763672 C-275.84562362 572.13882812 -240.21029701 571.8005536 -209.49584961 566.04736328 C-208.35535156 565.84336914 -207.21485352 565.639375 -206.03979492 565.42919922 C-189.77534606 562.47398198 -174.08355834 558.54088613 -158.49584961 553.04736328 C-157.45726807 552.69254883 -157.45726807 552.69254883 -156.39770508 552.33056641 C-124.26414035 541.32974296 -94.94872066 524.18307432 -68.49584961 503.04736328 C-67.53163086 502.28939453 -66.56741211 501.53142578 -65.57397461 500.75048828 C-58.04006007 494.6218635 -51.12821263 487.8901634 -44.24584961 481.04736328 C-43.32296143 480.13374023 -42.40007324 479.22011719 -41.44921875 478.27880859 C-24.32908921 461.08028033 -10.4031068 441.12249095 1.50415039 420.04736328 C2.15311279 418.91210205 2.15311279 418.91210205 2.81518555 417.75390625 C14.66567906 396.85278611 23.32735121 374.23621752 29.50415039 351.04736328 C29.73827637 350.16870605 29.97240234 349.29004883 30.21362305 348.38476562 C36.83786827 322.87457538 39.73183517 296.43123637 39.75415039 270.10986328 C39.75482513 269.38114014 39.75549988 268.65241699 39.75619507 267.90161133 C39.64990616 194.5125934 14.69871751 123.88909791 -34.49584961 69.04736328 C-34.97731445 68.50418457 -35.4587793 67.96100586 -35.95483398 67.40136719 C-47.65171796 54.2326123 -60.4442196 42.64873023 -74.49584961 32.04736328 C-75.37877686 31.37108887 -75.37877686 31.37108887 -76.27954102 30.68115234 C-123.9084492 -5.76149313 -185.42407994 -30.86043164 -245.90991211 -31.15576172 C-247.35664055 -31.16628319 -247.35664055 -31.16628319 -248.83259583 -31.17701721 C-251.92872843 -31.19442966 -255.02466984 -31.20086965 -258.12084961 -31.20263672 C-259.1779715 -31.20331146 -260.23509338 -31.20398621 -261.32424927 -31.2046814 C-276.61231288 -31.18915286 -291.436072 -30.8035281 -306.49584961 -27.95263672 Z " fill="#06ACB9" transform="translate(3531.495849609375,264.95263671875)"/>
<path d="M0 0 C313.76672694 0 313.76672694 0 368 39 C369.06347656 39.76441406 370.12695312 40.52882812 371.22265625 41.31640625 C408.94209113 69.30355913 432.28718674 110.21166243 439.359375 156.34423828 C446.21495669 205.38409126 437.38400032 258.77359071 407.71069336 299.30053711 C404.13250904 304.0085244 400.2239204 308.36561189 396.17578125 312.671875 C394.48066189 314.48568315 392.90753465 316.3022971 391.375 318.25 C388.2141277 321.9099574 384.73133044 324.93323659 381 328 C379.66195312 329.11181641 379.66195312 329.11181641 378.296875 330.24609375 C332.02443057 367.32337294 272.12882205 375.98882841 214.55029297 377.65893555 C209.61450494 377.80914847 204.85205064 377.9842593 200 379 C200.58265625 379.680625 201.1653125 380.36125 201.765625 381.0625 C207.23370396 387.52790153 212.42060342 394.14136252 217.47021484 400.93798828 C221.58276077 406.46720874 225.80978588 411.89460123 230.08203125 417.30078125 C238.26924832 427.66144551 246.33406737 438.11937723 254.375 448.59375 C257.56627975 452.74241368 260.784213 456.87032481 264 461 C268.81351723 467.18146123 273.60424879 473.37921882 278.375 479.59375 C281.56627975 483.74241368 284.784213 487.87032481 288 492 C292.81351723 498.18146123 297.60424879 504.37921882 302.375 510.59375 C305.56627975 514.74241368 308.784213 518.87032481 312 523 C316.01465625 528.15557352 320.02101023 533.31684228 324 538.5 C330.29429617 546.69698374 336.65013322 554.84603994 343 563 C350.14879829 572.17988011 357.28995283 581.36454382 364.375 590.59375 C367.56627975 594.74241368 370.784213 598.87032481 374 603 C378.81351723 609.18146123 383.60424879 615.37921882 388.375 621.59375 C391.56627975 625.74241368 394.784213 629.87032481 398 634 C402.81351723 640.18146123 407.60424879 646.37921882 412.375 652.59375 C415.56628042 656.74241454 418.78433086 660.87023202 422 665 C429.93964744 675.20143724 437.84051891 685.4294398 445.625 695.75 C446.15883301 696.45463379 446.69266602 697.15926758 447.24267578 697.88525391 C451 702.88389221 451 702.88389221 451 704 C439.60422026 704.37202101 428.20990132 704.65564155 416.80926895 704.82899475 C411.5140448 704.91223673 406.22299606 705.02494093 400.93017578 705.20703125 C395.81394848 705.38192839 390.70171278 705.476745 385.58272552 705.51803589 C383.63824343 705.54742294 381.69396132 705.60482357 379.75119781 705.69168091 C364.96869344 706.32580654 364.96869344 706.32580654 360.03941345 702.46398926 C356.47164251 698.70979949 353.79802543 694.51128915 351.23006725 690.03467846 C349.29634228 686.83606591 346.98008752 684.02426976 344.625 681.125 C344.12766357 680.49424561 343.63032715 679.86349121 343.11791992 679.21362305 C342.72193604 678.71386963 342.32595215 678.21411621 341.91796875 677.69921875 C333.73075168 667.33855449 325.66593263 656.88062277 317.625 646.40625 C314.43372025 642.25758632 311.215787 638.12967519 308 634 C303.18648277 627.81853877 298.39575121 621.62078118 293.625 615.40625 C290.43372025 611.25758632 287.215787 607.12967519 284 603 C279.18648277 596.81853877 274.39575121 590.62078118 269.625 584.40625 C266.43372025 580.25758632 263.215787 576.12967519 260 572 C255.18648277 565.81853877 250.39575121 559.62078118 245.625 553.40625 C242.43372025 549.25758632 239.215787 545.12967519 236 541 C231.98534375 535.84442648 227.97898977 530.68315772 224 525.5 C217.70570383 517.30301626 211.34986678 509.15396006 205 501 C197.85120171 491.82011989 190.71004717 482.63545618 183.625 473.40625 C180.43372025 469.25758632 177.215787 465.12967519 174 461 C169.18648277 454.81853877 164.39575121 448.62078118 159.625 442.40625 C156.43372025 438.25758632 153.215787 434.12967519 150 430 C145.18872293 423.82141556 140.39904845 417.6274724 135.6328125 411.4140625 C133.61872109 408.79527125 131.58897448 406.18906933 129.5546875 403.5859375 C128.94625 402.80669922 128.3378125 402.02746094 127.7109375 401.22460938 C126.5328206 399.71687041 125.35325883 398.21025867 124.171875 396.70507812 C119.63271506 390.89389778 115.34542609 384.97496087 111 379 C97.8 378.67 84.6 378.34 71 378 C71 485.58 71 593.16 71 704 C47.57 704 24.14 704 0 704 C0 471.68 0 239.36 0 0 Z M71 70 C71 148.54 71 227.08 71 308 C205.4159171 320.27082681 205.4159171 320.27082681 334.08984375 271 C356.28030794 248.62405884 367.25936726 218.75381825 367.5 187.5 C367.20840487 155.39986229 355.5265895 127.71885057 333 105 C332.35160156 104.30261719 331.70320313 103.60523438 331.03515625 102.88671875 C305.01733949 75.27722379 261.64115092 71.00853346 225.97410107 69.93926525 C215.16937928 69.69625125 204.3593308 69.75993916 193.55274963 69.79743958 C189.64982834 69.80905418 185.74693292 69.80937774 181.84399414 69.81079102 C170.52098063 69.82117678 159.19798865 69.84909871 147.875 69.875 C122.50625 69.91625 97.1375 69.9575 71 70 Z " fill="#989898" transform="translate(3714,182)"/>
<path d="M0 0 C0.81960205 0.00060425 1.6392041 0.0012085 2.48364258 0.00183105 C83.12127896 0.16159442 163.85756726 21.28980823 229.625 69.1875 C230.17043457 69.58275879 230.71586914 69.97801758 231.27783203 70.38525391 C241.92005388 78.13242791 251.97905593 86.44736188 261.60546875 95.4140625 C263.85322365 97.5047142 266.1614448 99.51027653 268.4921875 101.5078125 C272.7804256 105.24674554 276.68664364 109.27720313 280.5625 113.4375 C281.26270264 114.18620361 281.96290527 114.93490723 282.68432617 115.70629883 C287.926538 121.35105609 292.86112205 127.13215783 297.625 133.1875 C298.62960346 134.40262077 299.63625098 135.61605343 300.64453125 136.828125 C301.68014713 138.09337393 302.71530819 139.35899527 303.75 140.625 C304.24862549 141.21692139 304.74725098 141.80884277 305.26098633 142.41870117 C308.67478154 146.65511228 308.67478154 146.65511228 308.43481445 149.22143555 C307.00648289 152.68913349 303.66181764 154.45827081 300.6875 156.5625 C299.21753934 157.63245329 297.74883552 158.70413495 296.28125 159.77734375 C295.51425781 160.33534668 294.74726563 160.89334961 293.95703125 161.46826172 C290.14293464 164.28011979 286.4173387 167.20284521 282.6875 170.125 C281.18514408 171.29589151 279.68253875 172.46646307 278.1796875 173.63671875 C275.87000377 175.43651762 273.56120713 177.23740143 271.25488281 179.04150391 C268.94511702 180.84585985 266.62946979 182.64240883 264.3125 184.4375 C263.61326416 184.98656006 262.91402832 185.53562012 262.19360352 186.10131836 C258.79383386 188.72532958 255.77616752 190.87068864 251.625 192.1875 C250.99335938 191.35089844 250.36171875 190.51429688 249.7109375 189.65234375 C242.55164852 180.28904471 234.82887867 171.64354707 226.625 163.1875 C225.96242188 162.50300781 225.29984375 161.81851563 224.6171875 161.11328125 C216.67792511 152.94761404 208.7020172 145.09980849 199.625 138.1875 C199.0484668 137.73987305 198.47193359 137.29224609 197.87792969 136.83105469 C130.06320666 84.1877249 44.61241721 63.74444164 -40.26269531 73.76000977 C-70.48667421 77.6662828 -99.5394506 85.83331761 -127.375 98.1875 C-128.24431152 98.57131836 -129.11362305 98.95513672 -130.00927734 99.35058594 C-150.41504299 108.45942241 -169.49258971 119.79724555 -187.375 133.1875 C-187.99842285 133.65397949 -188.6218457 134.12045898 -189.26416016 134.60107422 C-196.71658216 140.22335298 -203.76070848 146.17878256 -210.56640625 152.56640625 C-213.18936811 155.01426078 -215.86501001 157.38502033 -218.5625 159.75 C-263.83744085 200.56931175 -291.35348988 262.83863577 -300.375 322.1875 C-300.52598145 323.12932129 -300.67696289 324.07114258 -300.83251953 325.04150391 C-305.782612 356.92608009 -305.43832236 391.34737545 -300.375 423.1875 C-300.20871094 424.25693848 -300.04242187 425.32637695 -299.87109375 426.42822266 C-295.8650197 451.33635898 -288.60062148 475.14662183 -278.375 498.1875 C-278.04000488 498.95239746 -277.70500977 499.71729492 -277.35986328 500.50537109 C-266.12597673 525.98711376 -250.25710666 549.49305079 -231.41015625 569.96875 C-229.5795558 571.96449099 -227.81663517 573.99980611 -226.0625 576.0625 C-218.82101879 584.36494241 -210.84341268 592.14698328 -202.375 599.1875 C-201.8608252 599.62610352 -201.34665039 600.06470703 -200.81689453 600.51660156 C-189.62812815 610.0481197 -177.78231316 618.32027281 -165.375 626.1875 C-164.27502686 626.88552734 -164.27502686 626.88552734 -163.15283203 627.59765625 C-117.98323685 655.92775573 -62.24925216 671.14878177 -8.99609375 671.390625 C-7.95376587 671.39763931 -6.91143799 671.40465363 -5.83752441 671.41188049 C-2.49580504 671.42927039 0.84573705 671.43573201 4.1875 671.4375 C5.33016327 671.43817474 6.47282654 671.43884949 7.65011597 671.43954468 C24.50580307 671.42372191 40.96995884 671.00922185 57.625 668.1875 C59.21876465 667.93009033 59.21876465 667.93009033 60.84472656 667.66748047 C76.80010119 665.04111033 92.24794837 661.17009662 107.625 656.1875 C108.5207373 655.90068359 109.41647461 655.61386719 110.33935547 655.31835938 C139.73476081 645.74499818 168.02342992 630.88207762 192.625 612.1875 C193.19379883 611.75614746 193.76259766 611.32479492 194.34863281 610.88037109 C197.91689954 608.15795255 201.43834394 605.38281631 204.92773438 602.56005859 C206.51302864 601.27804991 208.10773757 600.00770755 209.703125 598.73828125 C218.392862 591.65524395 226.26711747 583.7292023 234.1875 575.8125 C234.76447632 575.23652069 235.34145264 574.66054138 235.93591309 574.06710815 C237.60803759 572.39465644 239.27568711 570.71789196 240.94140625 569.0390625 C241.43989578 568.53936447 241.93838531 568.03966644 242.45198059 567.52482605 C245.7132469 564.22045703 248.69700958 560.78374549 251.625 557.1875 C255.08510261 557.80286774 257.14867276 559.11066811 259.90625 561.2578125 C260.73842041 561.89968506 261.57059082 562.54155762 262.42797852 563.20288086 C263.31799561 563.89905518 264.2080127 564.59522949 265.125 565.3125 C267.01896579 566.77547192 268.91351166 568.23769313 270.80859375 569.69921875 C272.25661377 570.81949463 272.25661377 570.81949463 273.73388672 571.96240234 C278.18811347 575.3905245 282.68563296 578.75982417 287.1875 582.125 C288.0134668 582.74334717 288.83943359 583.36169434 289.69042969 583.9987793 C291.27075793 585.18179608 292.85131365 586.36450907 294.43212891 587.546875 C297.58188651 589.90340707 300.72853739 592.26407137 303.875 594.625 C304.80828125 595.32496094 305.7415625 596.02492188 306.703125 596.74609375 C307.33734375 597.22175781 307.9715625 597.69742188 308.625 598.1875 C307.75027839 602.63904762 305.25379663 605.30745907 302.3125 608.625 C301.77415527 609.24117187 301.23581055 609.85734375 300.68115234 610.4921875 C299.00598277 612.39997887 297.31839317 614.29587526 295.625 616.1875 C295.12468262 616.74711426 294.62436523 617.30672852 294.10888672 617.88330078 C283.93429434 629.20394178 273.38590659 640.49731713 261.625 650.1875 C261.09245605 650.63383789 260.55991211 651.08017578 260.01123047 651.54003906 C201.74447626 700.32657598 130.58298037 728.87353675 55.3125 737.5 C54.25056427 737.62223938 54.25056427 737.62223938 53.16717529 737.74694824 C36.09576516 739.67692877 19.04953992 740.39818795 1.875 740.375 C1.03461182 740.37439575 0.19422363 740.3737915 -0.67163086 740.37316895 C-95.59505225 740.18988458 -187.81604932 713.19702154 -259.375 649.1875 C-259.96990234 648.65576172 -260.56480469 648.12402344 -261.17773438 647.57617188 C-275.32198003 634.84484768 -288.53483868 621.23656999 -299.98583984 606.01806641 C-301.48650335 604.04056642 -303.01608833 602.08791194 -304.55078125 600.13671875 C-328.46188242 569.59658776 -346.7957838 534.84391617 -359.375 498.1875 C-359.65923828 497.36378906 -359.94347656 496.54007813 -360.23632812 495.69140625 C-367.94324533 473.07206852 -372.93083881 449.81043072 -376.375 426.1875 C-376.54161133 425.06811035 -376.70822266 423.9487207 -376.87988281 422.79541016 C-382.07745966 386.00883368 -382.23229473 345.87987995 -376.375 309.1875 C-376.20339355 308.0536084 -376.03178711 306.9197168 -375.85498047 305.75146484 C-366.78435813 246.78026061 -343.8215958 190.85896224 -306.375 144.1875 C-305.94848145 143.65060547 -305.52196289 143.11371094 -305.08251953 142.56054688 C-300.48777164 136.7821621 -295.69170695 131.2178442 -290.7109375 125.76953125 C-288.82764529 123.68783201 -286.99124766 121.58013973 -285.16015625 119.453125 C-281.11046834 114.8158417 -276.8005139 110.46592269 -272.4375 106.125 C-271.67759766 105.36123047 -270.91769531 104.59746094 -270.13476562 103.81054688 C-265.3785502 99.06245479 -260.49769368 94.53669066 -255.375 90.1875 C-254.73860596 89.64440186 -254.10221191 89.10130371 -253.4465332 88.54174805 C-236.44156794 74.12789322 -218.57068451 61.51958798 -199.375 50.1875 C-198.16553711 49.47231201 -198.16553711 49.47231201 -196.93164062 48.74267578 C-137.70467553 14.09659894 -68.08792997 -0.09432397 0 0 Z " fill="#06ACB9" transform="translate(2184.375,163.8125)"/>
<path d="M0 0 C6.27 0 12.54 0 19 0 C24.55099674 11.01496778 29.93935183 22.08813338 35.1875 33.25 C35.93393792 34.8341767 36.68043967 36.41832332 37.42700195 38.00244141 C42.93489553 49.69827594 48.39248261 61.41703791 53.82421875 73.1484375 C57.20060016 80.4395707 60.59935501 87.7201639 64 95 C68.51223418 104.6610143 73.01293497 114.32726046 77.5 124 C83.72389358 137.41563332 89.97611734 150.81792129 96.23388672 164.21777344 C98.86574346 169.85365032 101.49580879 175.49036317 104.12600708 181.12701416 C105.58393113 184.25137712 107.04197146 187.37568581 108.5 190.5 C109.08333389 191.74999974 109.66666722 192.99999974 110.25 194.25 C110.683125 195.178125 110.683125 195.178125 111.125 196.125 C141.74999998 261.74999996 141.74999998 261.74999996 142.62498474 263.62496948 C143.20836671 264.87507225 143.79175091 266.12517397 144.37513733 267.37527466 C145.83274481 270.49869384 147.29031367 273.62213103 148.74780273 276.74560547 C151.38142338 282.38949208 154.01532822 288.03324517 156.65066528 293.67633057 C163.15244984 307.59875934 169.64123999 321.52703354 176.10791016 335.46582031 C181.79730947 347.7254694 187.51500882 359.97185742 193.23388672 372.21777344 C195.86574346 377.85365032 198.49580879 383.49036317 201.12600708 389.12701416 C202.58393113 392.25137712 204.04197146 395.37568581 205.5 398.5 C206.08333389 399.74999974 206.66666722 400.99999974 207.25 402.25 C207.53875 402.86875 207.8275 403.4875 208.125 404.125 C238.74999991 469.7499998 238.74999991 469.7499998 239.62498474 471.62496948 C240.20836671 472.87507225 240.79175091 474.12517397 241.37513733 475.37527466 C242.83274481 478.49869384 244.29031367 481.62213103 245.74780273 484.74560547 C248.38142338 490.38949208 251.01532822 496.03324517 253.65066528 501.67633057 C260.15244984 515.59875934 266.64123999 529.52703354 273.10791016 543.46582031 C278.79730947 555.7254694 284.51500882 567.97185742 290.23388672 580.21777344 C292.86574346 585.85365032 295.49580879 591.49036317 298.12600708 597.12701416 C299.58393113 600.25137712 301.04197146 603.37568581 302.5 606.5 C303.08333389 607.74999974 303.66666722 608.99999974 304.25 610.25 C304.53875 610.86875 304.8275 611.4875 305.125 612.125 C307.74999998 617.74999997 307.74999998 617.74999997 308.62498474 619.62496948 C309.20836671 620.87507225 309.79175091 622.12517397 310.37513733 623.37527466 C311.83274481 626.49869384 313.29031367 629.62213103 314.74780273 632.74560547 C317.97092343 639.65279909 321.19500131 646.55954429 324.42034912 653.46569824 C326.73945398 658.4318913 329.05561703 663.39945249 331.37115479 668.36730957 C333.1845598 672.2562678 335.00369425 676.14249832 336.82621765 680.02719116 C338.05188407 682.64125624 339.2745079 685.25673723 340.49655151 687.87249756 C341.07829494 689.11585413 341.66138681 690.35858074 342.24588013 691.60064697 C343.05020972 693.31025806 343.84945756 695.02225724 344.6484375 696.734375 C345.10395996 697.70600586 345.55948242 698.67763672 346.02880859 699.67871094 C347 702 347 702 347 704 C321.59 704 296.18 704 270 704 C260.6951452 685.3902904 260.6951452 685.3902904 257.30078125 678.453125 C256.90372482 677.64228455 256.5066684 676.83144409 256.09757996 675.99603271 C254.83457103 673.41466234 253.57324135 670.83247856 252.3125 668.25 C251.87325195 667.35071777 251.43400391 666.45143555 250.98144531 665.52490234 C245.19091157 653.66080733 239.51551224 641.75752169 234.01293945 629.75683594 C229.17370107 619.25664503 224.08965085 608.88052291 219 598.5 C212.83791281 585.93207015 206.77737294 573.33660288 200.94140625 560.61328125 C195.88959208 549.65058807 190.57536362 538.81992103 185.26580811 527.9803772 C178.39875449 513.95465535 171.75280261 499.84345168 165.24267578 485.64892578 C164.09210531 483.19633451 162.88768528 480.78181927 161.65234375 478.37109375 C160 475 160 475 160 473 C60.01 473 -39.98 473 -143 473 C-143.66 474.98 -144.32 476.96 -145 479 C-145.82766523 480.85105424 -146.69003504 482.68688573 -147.58203125 484.5078125 C-148.09499756 485.56210449 -148.60796387 486.61639648 -149.13647461 487.70263672 C-149.68956299 488.8320166 -150.24265137 489.96139648 -150.8125 491.125 C-152.00039365 493.56625946 -153.18448181 496.0093484 -154.3671875 498.453125 C-154.67005173 499.07867279 -154.97291595 499.70422058 -155.28495789 500.34872437 C-158.4112251 506.82261323 -161.42821756 513.3460268 -164.4375 519.875 C-169.14585644 530.07774425 -173.97627227 540.21499765 -178.88497925 550.32220459 C-183.18124898 559.1733179 -187.37880603 568.06573278 -191.5 577 C-196.18729323 587.16150431 -200.99672815 597.2571904 -205.88525391 607.32275391 C-210.73878124 617.32193141 -215.4480208 627.38296332 -220.10327148 637.47607422 C-224.28137407 646.51080173 -228.58816035 655.47733107 -232.93954468 664.42932129 C-237.88385089 674.60630109 -242.66860884 684.84625544 -247.35766602 695.14306641 C-248.05653931 696.67326416 -248.05653931 696.67326416 -248.76953125 698.234375 C-249.38211792 699.58354004 -249.38211792 699.58354004 -250.00708008 700.95996094 C-251 703 -251 703 -252 704 C-254.49492388 704.09502416 -256.96206014 704.12557566 -259.45727539 704.11352539 C-260.23770706 704.11367142 -261.01813873 704.11381744 -261.82221985 704.1139679 C-264.4140598 704.11326858 -267.00582878 704.10547536 -269.59765625 704.09765625 C-271.3898464 704.09579213 -273.18203706 704.0943682 -274.97422791 704.09336853 C-279.70070797 704.08954284 -284.42715752 704.07971212 -289.15362549 704.06866455 C-293.9728555 704.05845153 -298.79209042 704.05387115 -303.61132812 704.04882812 C-313.07423219 704.03808989 -322.53711356 704.02101286 -332 704 C-326.55887431 691.78418815 -320.99561099 679.63706903 -315.23086548 667.57061768 C-314.01414 665.02377305 -312.80009434 662.47566502 -311.58666992 659.92724609 C-309.89243328 656.36914691 -308.197436 652.81141173 -306.50195312 649.25390625 C-302.59353392 641.04993094 -298.70221531 632.83785573 -294.8125 624.625 C-294.44061554 623.83998108 -294.06873108 623.05496216 -293.68557739 622.24615479 C-288.11085248 610.47717343 -282.55855406 598.6977723 -277.01867676 586.91235352 C-271.71979744 575.64046737 -266.39741636 564.37987241 -261.0625 553.125 C-255.17887286 540.71239487 -249.30156293 528.29686129 -243.4375 515.875 C-243.0887381 515.1362262 -242.7399762 514.39745239 -242.38064575 513.6362915 C-240.62325331 509.91351795 -238.86603136 506.19066396 -237.10888672 502.46777344 C-233.21927744 494.22705672 -229.32754531 485.9873422 -225.43621826 477.74743652 C-224.3728305 475.49569295 -223.30945658 473.24394285 -222.24609375 470.9921875 C-221.89526733 470.24928467 -221.54444092 469.50638184 -221.1829834 468.7409668 C-219.06760284 464.26130879 -216.95269932 459.78142593 -214.83818054 455.30136108 C-213.07978163 451.57583126 -211.32119094 447.85039198 -209.5625 444.125 C-209.21381866 443.38638733 -208.86513733 442.64777466 -208.50588989 441.88677979 C-202.61489427 429.40903243 -196.7078895 416.93891131 -190.79763794 404.47027588 C-185.18501068 392.62810679 -179.59471636 380.77563294 -174.02023315 368.91546631 C-168.32218383 356.79362339 -162.59281506 344.68680687 -156.85449219 332.58398438 C-151.55129662 321.39791004 -146.26591804 310.20366913 -141 299 C-135.37456321 287.03196159 -129.7267743 275.07470646 -124.0625 263.125 C-118.1788728 250.71239474 -112.30163256 238.29682849 -106.4375 225.875 C-105.91385864 224.76584229 -105.91385864 224.76584229 -105.37963867 223.63427734 C-102.91942483 218.42300933 -100.45965379 213.21153237 -98 208 C-95.18781346 202.04151866 -92.37538612 196.08315112 -89.5625 190.125 C-89.21372803 189.38620605 -88.86495605 188.64741211 -88.50561523 187.88623047 C-82.61471473 175.4086645 -76.70780185 162.9387264 -70.79763794 150.47027588 C-65.51383822 139.3219051 -60.24815612 128.16519168 -55 117 C-49.37448533 105.03199672 -43.72648472 93.07484478 -38.0625 81.125 C-37.30646225 79.52962979 -36.5504401 77.9342522 -35.79443359 76.33886719 C-35.23326843 75.15466187 -35.23326843 75.15466187 -34.6607666 73.9465332 C-34.28673706 73.15722412 -33.91270752 72.36791504 -33.52734375 71.5546875 C-33.15331421 70.76537842 -32.77928467 69.97606934 -32.3939209 69.1628418 C-31.26255485 66.77525585 -30.13125385 64.38763911 -29 62 C-28.44061737 60.81935974 -28.44061737 60.81935974 -27.86993408 59.61486816 C-18.47791943 39.78937229 -9.14294822 19.94184468 0 0 Z M9 152 C0.42843198 169.52327047 -8.09513861 187.05851491 -16.25463867 204.77832031 C-20.07826349 213.06432762 -24.01315503 221.29181394 -28 229.5 C-32.59343873 238.95772185 -37.09580057 248.45221 -41.5 258 C-45.90420107 267.54779356 -50.4066926 277.04221232 -55 286.5 C-60.17440922 297.15455057 -65.2128626 307.86610055 -70.17578125 318.62109375 C-73.87392239 326.61877277 -77.65944566 334.56981168 -81.5 342.5 C-86.56483934 352.96014396 -91.5031321 363.47299281 -96.37768555 374.02270508 C-100.01894197 381.90173202 -103.70580219 389.75706413 -107.46191406 397.58203125 C-109.21634016 400.66530921 -109.21634016 400.66530921 -110 404 C-31.46 404 47.08 404 128 404 C126.16006961 398.48020883 124.60761571 393.84290916 122.1015625 388.76171875 C121.54694336 387.62742432 120.99232422 386.49312988 120.42089844 385.32446289 C120.1288855 384.73327667 119.83687256 384.14209045 119.53601074 383.5329895 C117.94605468 380.31211945 116.37614337 377.08148854 114.8046875 373.8515625 C114.48278442 373.1908223 114.16088135 372.53008209 113.82922363 371.84931946 C110.72195876 365.45762539 107.72541094 359.01654764 104.75 352.5625 C99.62802518 341.46845306 94.42619639 330.41436832 89.1875 319.375 C87.64051876 316.11463373 86.09360849 312.85423382 84.546875 309.59375 C84.16464279 308.78803055 83.78241058 307.9823111 83.38859558 307.1521759 C79.55493063 299.06759956 75.74391604 290.97243346 71.9375 282.875 C66.46974449 271.24458915 60.99025318 259.61980807 55.5 248 C49.97030169 236.29582873 44.44837506 224.58804634 38.9375 212.875 C38.61292816 212.185271 38.28835632 211.49554199 37.95394897 210.78491211 C34.54049818 203.53115655 31.12913421 196.27642949 27.7228241 189.01931763 C26.2697265 185.92389226 24.81571071 182.82889862 23.36160278 179.73394775 C22.67353881 178.26879202 21.98592153 176.80342642 21.29879761 175.33782959 C17.62853193 167.5094918 13.92472291 159.70514611 10 152 C9.67 152 9.34 152 9 152 Z " fill="#989898" transform="translate(4521,182)"/>
<path d="M0 0 C127.71 0 255.42 0 387 0 C387 23.1 387 46.2 387 70 C335.19 70 283.38 70 230 70 C230 279.22 230 488.44 230 704 C205.91 704 181.82 704 157 704 C157 494.78 157 285.56 157 70 C105.19 70 53.38 70 0 70 C0 46.9 0 23.8 0 0 Z " fill="#989898" transform="translate(4843,182)"/>
<path d="M0 0 C127.71 0 255.42 0 387 0 C387 23.1 387 46.2 387 70 C335.19 70 283.38 70 230 70 C230 279.22 230 488.44 230 704 C205.91 704 181.82 704 157 704 C157 494.78 157 285.56 157 70 C105.19 70 53.38 70 0 70 C0 46.9 0 23.8 0 0 Z " fill="#06ACB9" transform="translate(2521,182)"/>
<path d="M0 0 C140.25 0 280.5 0 425 0 C425 23.1 425 46.2 425 70 C284.75 70 144.5 70 0 70 C0 46.9 0 23.8 0 0 Z " fill="#989898" transform="translate(5275,184)"/>
<path d="M0 0 C139.59 0 279.18 0 423 0 C423 23.1 423 46.2 423 70 C283.41 70 143.82 70 0 70 C0 46.9 0 23.8 0 0 Z " fill="#989898" transform="translate(5275,816)"/>
<path d="M0 0 C139.59 0 279.18 0 423 0 C423 23.1 423 46.2 423 70 C283.41 70 143.82 70 0 70 C0 46.9 0 23.8 0 0 Z " fill="#989898" transform="translate(5275,472)"/>
<path d="M0 0 C1.36089276 1.13783667 2.71565895 2.28306482 4.0625 3.4375 C4.65160156 3.88351562 5.24070312 4.32953125 5.84765625 4.7890625 C19.76973216 15.63496218 27.76412449 33.72817563 30.6171875 50.74609375 C33.13968347 71.6562577 28.69840046 92.34336853 16.0625 109.4375 C2.73761072 126.1693212 -14.67107724 136.83916961 -35.9375 140.1875 C-37.26864324 140.30054826 -38.6028214 140.37957543 -39.9375 140.4375 C-40.94941406 140.4890625 -41.96132813 140.540625 -43.00390625 140.59375 C-64.58658648 141.17250344 -85.06683828 133.88293372 -100.83154297 119.08203125 C-106.5347834 113.46719916 -111.12519292 107.50871474 -114.9375 100.4375 C-115.39640625 99.58929688 -115.8553125 98.74109375 -116.328125 97.8671875 C-125.27769894 79.80630033 -126.96371707 58.57868973 -121.32421875 39.24609375 C-114.16773211 18.66252256 -100.45382042 2.11713113 -80.83447266 -7.68994141 C-54.85930489 -19.63784998 -22.94936879 -17.5221532 0 0 Z " fill="#06ACB9" transform="translate(795.9375,386.5625)"/>
<path d="M0 0 C2.43314212 1.89858817 4.73628171 3.86974324 7.015625 5.94921875 C7.6240625 6.46613281 8.2325 6.98304688 8.859375 7.515625 C21.24566261 18.74773581 30.10124828 37.18035026 31.20019531 53.72851562 C32.21196498 76.68622452 28.33720189 96.13029232 13.015625 113.94921875 C12.2421875 114.91988281 11.46875 115.89054688 10.671875 116.890625 C0.09122005 129.55480614 -16.08376745 136.9101118 -31.984375 139.94921875 C-33.098125 140.17609375 -34.211875 140.40296875 -35.359375 140.63671875 C-57.60389463 142.55434975 -78.30725983 137.46936953 -96.08984375 123.51171875 C-111.41361275 110.47370905 -120.68686405 92.73300777 -123.671875 72.88671875 C-125.30511589 52.30788352 -121.00018262 30.86856319 -107.37109375 14.78515625 C-104.68081927 11.72999504 -101.85848455 8.83171986 -98.984375 5.94921875 C-98.33855469 5.28019531 -97.69273437 4.61117188 -97.02734375 3.921875 C-71.1138642 -20.97538966 -28.20118134 -19.37908404 0 0 Z " fill="#06ACB9" transform="translate(291.984375,386.05078125)"/>
<path d="M0 0 C7.26 0 14.52 0 22 0 C25.37501898 9.00005062 25.37501898 9.00005062 26.26034546 12.10720825 C26.46442552 12.81732874 26.66850557 13.52744923 26.87876987 14.25908852 C27.19667185 15.38405015 27.19667185 15.38405015 27.52099609 16.53173828 C27.75436896 17.34737936 27.98774183 18.16302044 28.22818661 19.00337791 C28.99643784 21.69146353 29.75997377 24.38086361 30.5234375 27.0703125 C31.06704278 28.97627443 31.61092773 30.88215662 32.15507507 32.78796387 C33.60133521 37.85645377 35.04348964 42.9261034 36.48488235 47.99597931 C37.67002825 52.16210955 38.8579405 56.32744855 40.04596806 60.4927578 C45.24691644 78.72771946 50.4377687 96.96550282 55.57421875 115.21875 C55.88856873 116.33522919 56.2029187 117.45170837 56.52679443 118.60202026 C57.8930206 123.45727689 59.25502199 128.31364504 60.60888672 133.17236328 C61.06343984 134.79460664 61.51802679 136.41684053 61.97265625 138.0390625 C62.16929367 138.75114868 62.36593109 139.46323486 62.56852722 140.19689941 C63.28268447 143.36122007 63.28268447 143.36122007 65 146 C76.75952276 116.6862553 88.44501955 87.34306754 100.12054062 57.99578857 C101.30944217 55.00768534 102.49863017 52.01969626 103.68789673 49.03173828 C105.59499242 44.24013748 107.50128932 39.44821962 109.40699768 34.65606689 C110.11701677 32.87093444 110.82727524 31.08589718 111.53779602 29.30096436 C115.41675949 19.55568624 119.26608337 9.80200328 123 0 C124.98 0 126.96 0 129 0 C136.24898682 17.67400535 143.35055683 35.39818416 150.3125 53.1875 C151.25087754 55.58145093 152.18943974 57.97532949 153.12817383 60.36914062 C154.58844679 64.09311153 156.04862601 67.81711848 157.50791931 71.54147339 C161.06932565 80.63037714 164.63835947 89.7162635 168.2109375 98.80078125 C168.720015 100.09547082 169.22908387 101.39016379 169.73814392 102.68486023 C171.70116732 107.67733961 173.6642145 112.66980948 175.62808228 117.66195679 C176.97529608 121.0869082 178.32171858 124.51216972 179.66796875 127.9375 C180.063862 128.94335648 180.45975525 129.94921295 180.86764526 130.98554993 C182.95835926 136.30718376 185.00871512 141.64033908 187 147 C193.51582241 126.28863531 199.52889257 105.4438238 205.49702072 84.56973267 C207.53029506 77.46189944 209.57002569 70.35591382 211.60905266 63.24972916 C212.1104959 61.50210055 212.61185567 59.75444799 213.11313057 58.00677109 C217.1807764 43.82593351 221.28124623 29.65516515 225.4375 15.5 C225.68447632 14.65879608 225.93145264 13.81759216 226.18591309 12.95089722 C227.45431822 8.63305006 228.72646052 4.31634025 230 0 C237.26 0 244.52 0 252 0 C251.30577294 5.55381651 250.5755996 10.0329698 249.05175781 15.29174805 C248.85375737 15.98132032 248.65575693 16.6708926 248.45175648 17.38136101 C247.79121275 19.67649161 247.12214817 21.96904686 246.453125 24.26171875 C245.97263515 25.92513056 245.49270615 27.58870445 245.01329041 29.25242615 C243.97712072 32.84404142 242.93722206 36.4345478 241.89437866 40.02423096 C240.23156533 45.74806699 238.57660677 51.47415439 236.9230957 57.20068359 C235.16223299 63.29785248 233.40089733 69.3948821 231.63691711 75.4911499 C227.07855546 91.24697208 222.5471218 107.01041333 218.02734375 122.77734375 C217.36461977 125.08874173 216.7018899 127.40013802 216.03915405 129.71153259 C213.44925729 138.74487481 210.85989168 147.77836913 208.2713623 156.81210327 C206.7515528 162.11567076 205.23045758 167.41886806 203.708498 172.72181892 C203.14934173 174.67092861 202.59063393 176.62016701 202.03242302 178.56954765 C199.11863396 188.74461525 196.17246829 198.90189591 193 209 C191.02 209 189.04 209 187 209 C186.62004883 208.02506592 186.24009766 207.05013184 185.84863281 206.0456543 C175.57412252 179.68536586 165.25943545 153.34097547 154.92486572 127.00418091 C151.75540037 118.92667018 148.58823128 110.84826117 145.421875 102.76953125 C144.05564112 99.28407101 142.68938292 95.79862029 141.32312012 92.31317139 C140.45037092 90.08652963 139.57772858 87.85984598 138.7052002 85.63311768 C137.49128374 82.53523536 136.276936 79.43752242 135.0625 76.33984375 C134.70919617 75.43788773 134.35589233 74.5359317 133.99188232 73.60664368 C132.99716741 71.070073 131.99877267 68.53497519 131 66 C130.63503418 65.06648712 130.27006836 64.13297424 129.89404297 63.1711731 C129.53584473 62.2620517 129.17764648 61.3529303 128.80859375 60.41625977 C128.32410767 59.18142601 128.32410767 59.18142601 127.82983398 57.92164612 C127.15323817 56.03029405 127.15323817 56.03029405 126 55 C125.79498178 55.5151224 125.58996357 56.03024481 125.37873268 56.56097698 C120.29063411 69.34509655 115.20209161 82.12903935 110.11310768 94.91280651 C107.65170031 101.09600604 105.19043082 107.27926037 102.72949219 113.46264648 C97.52954817 126.52787616 92.32786174 139.59240842 87.1219368 152.65525627 C84.83581418 158.39174669 82.55055791 164.12857855 80.26745605 169.86627197 C78.12802076 175.24278469 75.98615098 180.61832086 73.84235764 185.99309731 C73.05155661 187.97697752 72.26165046 189.9612147 71.47267532 191.94582176 C70.3974158 194.65014151 69.31900327 197.35318189 68.23974609 200.0559082 C67.92307858 200.85452333 67.60641106 201.65313847 67.28014755 202.47595406 C65.11412995 207.88587005 65.11412995 207.88587005 64 209 C62.33382885 209.04063832 60.66611905 209.042721 59 209 C54.90533382 196.27189985 51.07550524 183.49424207 47.46484375 170.62109375 C46.94785068 168.78663518 46.43057465 166.95225634 45.91304016 165.11795044 C44.81808593 161.23511687 43.72489071 157.3517945 42.63317871 153.4680481 C40.91504563 147.35602089 39.19281532 141.24515319 37.46972656 135.13452148 C36.88418244 133.05787753 36.29864168 130.98123263 35.71310425 128.90458679 C35.42231869 127.87331854 35.13153313 126.84205029 34.83193588 125.77953148 C33.94773316 122.64316794 33.06391773 119.50669548 32.1802063 116.37019348 C26.78114348 97.20952002 21.35379792 78.0569284 15.91579056 58.90727615 C15.04513434 55.84100565 14.17486002 52.77462682 13.30459499 49.70824528 C12.48699593 46.82767352 11.66908295 43.94719094 10.85117912 41.0667057 C10.27793367 39.04726745 9.70516584 37.0276942 9.13246155 35.00810242 C7.46816777 29.14413644 5.79609343 23.28280959 4.09570312 17.42919922 C3.80983337 16.44177231 3.52396362 15.4543454 3.22943115 14.43699646 C2.71032029 12.64697424 2.18800264 10.85787719 1.66168213 9.06996155 C0.75964846 5.95605136 0 3.26002452 0 0 Z " fill="#989898" transform="translate(2876,1151)"/>
<path d="M0 0 C2.65828529 2.24683238 5.2238479 4.58380581 7.77172852 6.9543457 C8.66633789 7.76774414 9.56094727 8.58114258 10.48266602 9.41918945 C30.0554721 27.99829923 41.05541782 54.54370201 41.99047852 81.30981445 C42.70512418 113.55278612 33.62508506 141.37127207 11.19555664 164.98217773 C-10.27072118 186.95492874 -37.4669504 197.64235356 -68.16577148 198.2043457 C-101.0176755 197.53617138 -128.81168119 185.54876604 -151.63842773 161.8840332 C-171.4207896 139.5057958 -180.43112722 111.96036069 -179.04077148 82.2043457 C-177.43817688 57.22063235 -168.82640142 33.84076151 -152.22827148 14.9543457 C-151.5540918 14.13708008 -150.87991211 13.31981445 -150.18530273 12.4777832 C-136.71228728 -3.37571039 -118.1797551 -13.67895775 -98.22827148 -19.0456543 C-97.04749023 -19.36405273 -95.86670898 -19.68245117 -94.65014648 -20.01049805 C-62.77946556 -27.24474257 -25.6564918 -20.81745917 0 0 Z M-125.22827148 19.9543457 C-125.9565918 20.52540039 -126.68491211 21.09645508 -127.43530273 21.68481445 C-144.36595815 35.59107958 -153.78004853 57.54394305 -156.22827148 78.9543457 C-157.87693122 106.41261204 -150.33244272 129.26993569 -132.04077148 149.9465332 C-122.41673326 160.45561581 -108.82447489 168.67061038 -95.22827148 172.9543457 C-94.28854492 173.25211914 -93.34881836 173.54989258 -92.38061523 173.85668945 C-68.52214519 180.14744036 -43.40770267 176.1078066 -22.22827148 163.9543457 C-3.95128187 152.30996259 9.4442869 135.73716206 15.77172852 114.9543457 C16.24739258 113.48481445 16.24739258 113.48481445 16.73266602 111.9855957 C21.33861763 94.91399521 20.67857921 74.59390551 14.77172852 57.9543457 C14.39790039 56.88442383 14.02407227 55.81450195 13.63891602 54.7121582 C9.20185531 43.16404658 2.40678096 33.73189076 -6.22827148 24.9543457 C-6.98881836 24.1809082 -7.74936523 23.4074707 -8.53295898 22.6105957 C-25.67996979 6.19444109 -49.3182473 -1.60912388 -72.74389648 -1.26049805 C-92.16781147 -0.58941429 -110.47956771 7.5887359 -125.22827148 19.9543457 Z " fill="#989898" transform="translate(2789.228271484375,1168.045654296875)"/>
<path d="M0 0 C1.77165527 0.00737183 1.77165527 0.00737183 3.57910156 0.01489258 C29.70694553 0.36300201 54.27246403 8.68331928 73.8125 26.3125 C74.65039062 27.00859375 75.48828125 27.7046875 76.3515625 28.421875 C95.68150685 44.81941293 108.72452896 70.06486719 110.99276733 95.3196106 C111.28140656 100.08771557 111.2924441 104.8499348 111.25 109.625 C111.24729095 110.34417603 111.24458191 111.06335205 111.24179077 111.80432129 C111.17762228 123.06237945 110.31255493 133.55904176 106.8125 144.3125 C106.461875 145.43398437 106.11125 146.55546875 105.75 147.7109375 C100.60934582 162.45461927 92.33510455 174.92221442 81.8125 186.3125 C81.16925781 187.03695313 80.52601562 187.76140625 79.86328125 188.5078125 C62.19960185 207.43592015 36.06878981 218.88563659 10.3203125 220.2578125 C9.49273437 220.27585937 8.66515625 220.29390625 7.8125 220.3125 C6.84054687 220.35117188 5.86859375 220.38984375 4.8671875 220.4296875 C-26.77138681 221.12931199 -54.37902072 210.29440849 -77.52978516 188.90234375 C-97.9447917 169.32317989 -108.84127054 142.83769951 -109.46655273 114.72241211 C-109.81046974 82.23104092 -99.16275628 53.41176921 -76.375 30.0625 C-56.00541129 9.95732422 -28.35418723 -0.14067004 0 0 Z M-62.1875 48.3125 C-62.88359375 48.99699219 -63.5796875 49.68148438 -64.296875 50.38671875 C-80.24985457 67.11261399 -87.4254007 90.57020536 -87.1875 113.3125 C-86.22859595 138.69761856 -75.69961265 159.60005606 -57.51953125 177.22265625 C-38.21234606 194.52474013 -15.37216801 199.23119768 9.71191406 198.49169922 C31.64283361 197.22419568 51.76676195 185.87861696 66.8125 170.3125 C83.70819552 150.84865876 90.4361662 126.69099215 88.8125 101.3125 C86.64282422 77.9230873 75.74988589 57.39603058 58.07421875 41.9140625 C21.0269341 12.53691932 -28.89176911 15.07497843 -62.1875 48.3125 Z " fill="#06ACB9" transform="translate(5180.1875,1145.6875)"/>
<path d="M0 0 C117.12433393 0 117.12433393 0 147 29 C147.68578125 29.61230469 148.3715625 30.22460938 149.078125 30.85546875 C167.98964303 48.31511827 175.45277215 75.46197441 176.89794922 100.33203125 C177.99999364 129.14337437 171.07183823 156.76926517 152 179 C151.29810547 179.91845703 151.29810547 179.91845703 150.58203125 180.85546875 C135.38793326 200.32708407 110.9925972 205.71534326 88 209 C58.96 209 29.92 209 0 209 C0 140.03 0 71.06 0 0 Z M21 21 C21 76.44 21 131.88 21 189 C81.15252363 191.83325571 81.15252363 191.83325571 133.3125 166.1875 C150.11042112 148.58198652 154.63112797 127.21584725 154.47460938 103.68237305 C154.24638958 93.96845111 153.11594026 85.19457782 150 76 C149.63777344 74.92234375 149.27554688 73.8446875 148.90234375 72.734375 C141.52743962 53.23462848 127.60661848 39.41894542 108.98046875 30.75390625 C82.26579123 18.81109732 49.46437654 21 21 21 Z " fill="#989898" transform="translate(3717,1151)"/>
<path d="M0 0 C6 0 6 0 8.89453125 2.45703125 C9.88478178 3.55997414 10.85665142 4.67961315 11.8125 5.8125 C12.33384521 6.40345459 12.85519043 6.99440918 13.39233398 7.60327148 C17.28863639 12.05405459 21.02042347 16.64117861 24.72265625 21.25390625 C27.21826469 24.26319052 29.83765143 27.13938654 32.5 30 C36.76920779 34.58757439 40.75758739 39.33443004 44.6875 44.21875 C47.19971133 47.24019336 49.82402457 50.12440078 52.5 53 C56.7895776 57.61001639 60.80410897 62.37783236 64.75390625 67.28515625 C67.0883059 70.10673495 69.51990598 72.80590712 72 75.5 C75.27418423 79.05670244 78.40642433 82.67161811 81.4375 86.4375 C85.09571015 90.97316443 88.94742965 95.2570117 92.91381836 99.51928711 C96.69490558 103.60661006 100.19689966 107.88043244 103.6875 112.21875 C106.1997101 115.24019188 108.82400827 118.12441773 111.5 121 C114.9741715 124.73329478 118.30068494 128.52370843 121.5 132.5 C125.57498953 137.56264409 129.89502743 142.3274072 134.32421875 147.078125 C137.29133605 150.31813046 140.14085341 153.66432898 143 157 C143.33 105.19 143.66 53.38 144 0 C150.93 0 157.86 0 165 0 C165 68.97 165 137.94 165 209 C159 209 159 209 157.26831055 207.8894043 C156.58442261 207.11463745 156.58442261 207.11463745 155.88671875 206.32421875 C155.36577637 205.74913574 154.84483398 205.17405273 154.30810547 204.58154297 C153.77330566 203.95650879 153.23850586 203.33147461 152.6875 202.6875 C151.83502686 201.73061279 151.83502686 201.73061279 150.96533203 200.75439453 C146.92412006 196.18303771 143.0551987 191.47370973 139.2421875 186.7109375 C136.7609345 183.71095565 134.15135693 180.84846349 131.5 178 C128.04835946 174.29140465 124.73477706 170.51493923 121.5625 166.5625 C118.19653735 162.37762693 114.66823983 158.41685602 111 154.5 C106.54127805 149.73908666 102.36202376 144.83532437 98.27734375 139.74609375 C95.7817361 136.73681042 93.16236519 133.86059714 90.5 131 C87.04838064 127.29138312 83.73477852 123.51494105 80.5625 119.5625 C77.19653735 115.37762693 73.66823983 111.41685602 70 107.5 C65.54127805 102.73908666 61.36202376 97.83532437 57.27734375 92.74609375 C54.78173531 89.73680948 52.16234857 86.86061346 49.5 84 C46.02580757 80.26672745 42.6993129 76.47628889 39.5 72.5 C34.56552841 66.46897916 29.26554801 60.74423419 24 55 C23.67 105.82 23.34 156.64 23 209 C15.41 209 7.82 209 0 209 C0 140.03 0 71.06 0 0 Z " fill="#06ACB9" transform="translate(5348,1151)"/>
<path d="M0 0 C5 0 5 0 6.703125 1.14453125 C7.21359375 1.69496094 7.7240625 2.24539063 8.25 2.8125 C9.14525391 3.77349609 9.14525391 3.77349609 10.05859375 4.75390625 C12.98827181 8.14337282 15.80487659 11.61913356 18.61328125 15.109375 C20.99370482 17.99237572 23.46679782 20.75078833 26 23.5 C29.27418423 27.05670244 32.40642433 30.67161811 35.4375 34.4375 C39.09571015 38.97316443 42.94742965 43.2570117 46.91381836 47.51928711 C50.69490558 51.60661006 54.19689966 55.88043244 57.6875 60.21875 C60.1997101 63.24019188 62.82400827 66.12441773 65.5 69 C69.76918152 73.58760113 73.75758517 78.33442728 77.6875 83.21875 C80.19971133 86.24019336 82.82402457 89.12440078 85.5 92 C89.7895776 96.61001639 93.80410897 101.37783236 97.75390625 106.28515625 C100.0883059 109.10673495 102.51990598 111.80590712 105 114.5 C108.27418423 118.05670244 111.40642433 121.67161811 114.4375 125.4375 C118.09011755 129.9662304 121.93462732 134.24488214 125.89624023 138.49951172 C129.83711107 142.75784738 133.502904 147.18837798 137.125 151.72265625 C139.10179803 154.19824192 139.10179803 154.19824192 142 157 C142.33 105.19 142.66 53.38 143 0 C149.93 0 156.86 0 164 0 C164 68.97 164 137.94 164 209 C158 209 158 209 155.10546875 206.54296875 C154.11521822 205.44002586 153.14334858 204.32038685 152.1875 203.1875 C151.66615479 202.59654541 151.14480957 202.00559082 150.60766602 201.39672852 C146.71136361 196.94594541 142.97957653 192.35882139 139.27734375 187.74609375 C136.7817361 184.73681042 134.16236519 181.86059714 131.5 179 C128.04838064 175.29138312 124.73477852 171.51494105 121.5625 167.5625 C118.19653735 163.37762693 114.66823983 159.41685602 111 155.5 C106.54127805 150.73908666 102.36202376 145.83532437 98.27734375 140.74609375 C95.7817361 137.73681042 93.16236519 134.86059714 90.5 132 C87.04838064 128.29138312 83.73477852 124.51494105 80.5625 120.5625 C77.19653735 116.37762693 73.66823983 112.41685602 70 108.5 C65.54127805 103.73908666 61.36202376 98.83532437 57.27734375 93.74609375 C54.78173531 90.73680948 52.16234857 87.86061346 49.5 85 C45.24146 80.42388891 41.26064879 75.69124224 37.34375 70.81640625 C34.20749202 67.04766958 30.89553405 63.45737296 27.54101562 59.8828125 C24.09837806 56.19675611 24.09837806 56.19675611 23 54 C22.67 105.15 22.34 156.3 22 209 C14.74 209 7.48 209 0 209 C0 140.03 0 71.06 0 0 Z " fill="#06ACB9" transform="translate(4754,1151)"/>
<path d="M0 0 C97.95847107 0 97.95847107 0 116.640625 17.55078125 C128.57034477 29.93477843 131.45632591 43.82385826 131.2109375 60.453125 C130.76662925 73.71654917 125.41734845 86.34225935 116.26171875 95.96875 C100.73096008 109.91692705 81.00562594 112.28988598 61 113 C67.40385376 121.64012015 73.97657295 130.14067201 80.58984375 138.62109375 C83.4082469 142.23608669 86.2094103 145.86349844 89 149.5 C95.29429617 157.69698374 101.65013322 165.84603994 108 174 C112.1320341 179.30600754 116.26198317 184.61360918 120.38671875 189.92529297 C121.93178768 191.9122778 123.48118161 193.89582073 125.03125 195.87890625 C125.93766667 197.0441412 126.84392725 198.2094976 127.75 199.375 C128.52859375 200.37273437 129.3071875 201.37046875 130.109375 202.3984375 C131.69165271 204.57570393 132.84364853 206.59061429 134 209 C129.64674482 209.23344258 125.29510562 209.3747943 120.9375 209.5 C119.70837891 209.56703125 118.47925781 209.6340625 117.21289062 209.703125 C108.29128199 209.8955047 108.29128199 209.8955047 104.7800293 207.46044922 C102.95904352 205.40591368 101.48149007 203.30927108 100 201 C98.99789829 199.70344722 97.98629197 198.41417915 96.96484375 197.1328125 C95.95313318 195.79883987 94.94410765 194.46282745 93.9375 193.125 C92.80013763 191.62580232 91.66209382 190.12712141 90.5234375 188.62890625 C89.94303711 187.86465332 89.36263672 187.10040039 88.76464844 186.31298828 C85.88877606 182.54347875 82.97691191 178.80224656 80.0625 175.0625 C79.48459717 174.32056396 78.90669434 173.57862793 78.3112793 172.81420898 C77.13563971 171.3053275 75.9597763 169.79662036 74.78369141 168.28808594 C71.77046583 164.42277659 68.75979468 160.55548127 65.75 156.6875 C65.16226807 155.93218994 64.57453613 155.17687988 63.96899414 154.39868164 C59.84530745 149.09563797 55.74549781 143.77496547 51.65625 138.4453125 C49.56273797 135.72341873 47.45486919 133.01294564 45.34375 130.3046875 C44.70824219 129.48935547 44.07273437 128.67402344 43.41796875 127.83398438 C42.16109485 126.22257476 40.90331499 124.61187128 39.64453125 123.00195312 C39.07089844 122.26654297 38.49726563 121.53113281 37.90625 120.7734375 C37.39384766 120.11778809 36.88144531 119.46213867 36.35351562 118.78662109 C35.17709844 117.23376738 34.08064255 115.62096383 33 114 C29.37 113.67 25.74 113.34 22 113 C22 144.68 22 176.36 22 209 C14.74 209 7.48 209 0 209 C0 140.03 0 71.06 0 0 Z M22 21 C22 44.1 22 67.2 22 91 C60.88749078 94.82818669 60.88749078 94.82818669 97.375 81.8125 C105.38456929 73.99363474 108.45337783 66.20575443 109 55 C108.46023965 45.66214602 104.59186385 37.11356257 97.875 30.625 C82.78194451 18.1315845 59.41557989 20.85189017 41.0625 20.9375 C34.771875 20.958125 28.48125 20.97875 22 21 Z " fill="#989898" transform="translate(3355,1151)"/>
<path d="M0 0 C1.98 0 3.96 0 6 0 C17.26855251 22.23070933 27.87633522 44.7760202 38.33203125 67.39794922 C41.18696065 73.56329295 44.06234871 79.71906737 46.9375 85.875 C47.52467399 87.13256099 48.11183217 88.39012936 48.69897461 89.64770508 C49.87716349 92.17111499 51.05548526 94.69446279 52.23388672 97.21777344 C54.86574346 102.85365032 57.49580879 108.49036317 60.12600708 114.12701416 C61.58393113 117.25137712 63.04197146 120.37568581 64.5 123.5 C65.08333389 124.74999974 65.66666722 125.99999974 66.25 127.25 C66.683125 128.178125 66.683125 128.178125 67.125 129.125 C92.74609375 184.02734375 92.74609375 184.02734375 94.33544922 187.44482422 C95.53398058 190.00466783 96.74341324 192.55735372 97.96533203 195.10595703 C98.28985855 195.78783585 98.61438507 196.46971466 98.94874573 197.17225647 C99.57616549 198.48996046 100.20807809 199.80553728 100.84507751 201.11863708 C102.18759895 203.94943367 103 205.82355927 103 209 C95.41 209 87.82 209 80 209 C72.76860235 195.66711058 66.19232176 182.10728182 59.79882812 168.35986328 C59.46840012 167.65067245 59.13797211 166.94148163 58.79753113 166.21080017 C58.18870945 164.90293286 57.5816254 163.59425393 56.977005 162.28443909 C53.79543468 155.44360372 50.37933471 148.75866942 47 142 C17.63 141.67 -11.74 141.34 -42 141 C-42.66 142.98 -43.32 144.96 -44 147 C-44.57630579 148.35214213 -45.17876563 149.69357877 -45.8125 151.01977539 C-46.1607785 151.75302032 -46.50905701 152.48626526 -46.8678894 153.24172974 C-47.42828415 154.40791336 -47.42828415 154.40791336 -48 155.59765625 C-48.39236847 156.42135712 -48.78473694 157.24505798 -49.18899536 158.09371948 C-50.45600303 160.75158237 -51.72788423 163.40707873 -53 166.0625 C-53.86732583 167.87884388 -54.73435025 169.69533173 -55.60107422 171.51196289 C-57.29855928 175.06894984 -58.99777205 178.6251033 -60.69824219 182.18066406 C-62.62300218 186.20734789 -64.53756194 190.23866818 -66.4453125 194.2734375 C-67.14527344 195.75251587 -67.14527344 195.75251587 -67.859375 197.26147461 C-68.68097556 198.99865897 -69.50135992 200.73641926 -70.3203125 202.47485352 C-72.88789233 207.88789233 -72.88789233 207.88789233 -74 209 C-75.78071246 209.08726223 -77.5648314 209.10699041 -79.34765625 209.09765625 C-80.42724609 209.09443359 -81.50683594 209.09121094 -82.61914062 209.08789062 C-83.75544922 209.07951172 -84.89175781 209.07113281 -86.0625 209.0625 C-87.20267578 209.05798828 -88.34285156 209.05347656 -89.51757812 209.04882812 C-92.34510351 209.03699747 -95.1725264 209.0205141 -98 209 C-95.71100216 201.19503367 -92.27348963 194.08358718 -88.67959595 186.81988525 C-86.86355035 183.14785441 -85.06684602 179.4663823 -83.26953125 175.78515625 C-82.90605087 175.0414679 -82.5425705 174.29777954 -82.16807556 173.53155518 C-78.79047395 166.60470187 -75.53541828 159.6252582 -72.3125 152.625 C-68.12619114 143.54092869 -63.8600733 134.50198884 -59.5 125.5 C-55.0795517 116.37232856 -50.75127059 107.20767981 -46.5 98 C-41.72689341 87.66209367 -36.8358985 77.38801728 -31.87280273 67.14013672 C-28.02242933 59.17125644 -24.27066003 51.16093982 -20.5625 43.125 C-13.88805921 28.66217303 -6.96773898 14.32336295 0 0 Z M3 47 C-2.56174733 58.06463524 -8.03559431 69.16899987 -13.4375 80.3125 C-13.80551727 81.07159668 -14.17353455 81.83069336 -14.55270386 82.61279297 C-16.71992855 87.08448364 -18.88420737 91.557592 -21.04724121 96.03131104 C-21.9143069 97.82293203 -22.78368704 99.61343247 -23.65332031 101.40380859 C-24.96224288 104.09976542 -26.26406412 106.79898145 -27.5625 109.5 C-27.92593506 110.24548096 -28.28937012 110.99096191 -28.66381836 111.7590332 C-30.06627606 114.69770184 -31 116.69991196 -31 120 C-8.23 120 14.54 120 38 120 C32.82278844 108.49508542 27.66702837 97.06761946 22.125 85.75 C15.87831072 72.92508599 9.87457545 60.00018417 4 47 C3.67 47 3.34 47 3 47 Z " fill="#06ACB9" transform="translate(4125,1151)"/>
<path d="M0 0 C3.125 -0.1875 3.125 -0.1875 6 0 C12.48076382 12.6090994 18.43333359 25.45342154 24.37477112 38.32324219 C27.27223033 44.59672009 30.1951092 50.85823598 33.12078857 57.11859131 C37.92815211 67.40578193 42.72163234 77.69930109 47.5 88 C53.72389358 101.41563332 59.97611734 114.81792129 66.23388672 128.21777344 C68.86638468 133.85502344 71.49709052 139.49310975 74.12792969 145.13113403 C75.5760987 148.23459225 77.02438317 151.33799659 78.47265625 154.44140625 C79.05485082 155.68896458 79.63704483 156.93652318 80.21923828 158.18408203 C80.51066711 158.80857239 80.80209595 159.43306274 81.10235596 160.07647705 C92.74609375 185.02734375 92.74609375 185.02734375 94.33544922 188.44091797 C95.5377266 191.01158381 96.74750046 193.57784797 97.96533203 196.14111328 C98.28985855 196.82750381 98.61438507 197.51389435 98.94874573 198.22108459 C99.5777415 199.55104324 100.2097352 200.8795892 100.84507751 202.20652771 C103 206.77495722 103 206.77495722 103 209 C95.08 209 87.16 209 79 209 C76.36860189 203.63839635 73.73923566 198.27587248 71.11425781 192.91113281 C70.22729271 191.09974309 69.3393266 189.28884305 68.45019531 187.47851562 C61.0564674 172.42158452 54.03280384 157.23774164 47 142 C17.63 142 -11.74 142 -42 142 C-52.10037602 162.91013793 -52.10037602 162.91013793 -61.9375 183.9375 C-65.81063499 192.37243585 -69.81142977 200.71649374 -74 209 C-82.25 209 -90.5 209 -99 209 C-93.52663045 196.75007768 -87.95909113 184.56293632 -82.17428589 172.4574585 C-80.10268652 168.12216884 -78.03841454 163.78338757 -75.97265625 159.4453125 C-75.55379654 158.56626251 -75.13493683 157.68721252 -74.7033844 156.78152466 C-70.59427267 148.15566567 -66.51318447 139.51669125 -62.4375 130.875 C-61.04186411 127.91657348 -59.64602126 124.9582447 -58.25 122 C-57.90355942 121.26586884 -57.55711884 120.53173767 -57.20018005 119.77536011 C-53.50175994 111.94058776 -49.79034815 104.11198098 -46.07913208 96.28326416 C-40.3617223 84.22243186 -34.6550135 72.1567559 -28.97665405 60.07748413 C-25.98663733 53.71728702 -22.99389406 47.35837275 -20 41 C-19.41490662 39.75733368 -19.41490662 39.75733368 -18.81799316 38.48956299 C-16.32895702 33.20434092 -13.83685259 27.92058016 -11.34130859 22.63842773 C-10.53577406 20.93244723 -9.73107505 19.22607192 -8.92724609 17.51928711 C-7.81051269 15.14850934 -6.69078859 12.77916695 -5.5703125 10.41015625 C-5.23774445 9.70246597 -4.90517639 8.9947757 -4.56253052 8.26564026 C-3.18472636 5.35968727 -1.7878741 2.68181115 0 0 Z M2 47 C-6.71942061 64.92424005 -15.26937374 82.91315986 -23.61816406 101.01318359 C-24.85953339 103.69638365 -26.10976393 106.3750755 -27.3671875 109.05078125 C-27.70371338 109.7670166 -28.04023926 110.48325195 -28.38696289 111.22119141 C-29.23202132 113.01652262 -30.07881039 114.81103896 -30.92578125 116.60546875 C-32.06821872 118.71465777 -32.06821872 118.71465777 -32 120 C-9.23 120 13.54 120 37 120 C35.43965859 115.31897578 33.6986954 111.01607484 31.578125 106.59375 C31.24122147 105.88362259 30.90431793 105.17349518 30.5572052 104.44184875 C29.45799697 102.12636569 28.35412153 99.81314369 27.25 97.5 C25.71068001 94.26506314 24.17348157 91.02912106 22.63671875 87.79296875 C22.24886703 86.97696701 21.86101532 86.16096527 21.46141052 85.32023621 C18.88498057 79.89135062 16.34538607 74.44662811 13.83203125 68.98828125 C13.34774155 67.93898941 13.34774155 67.93898941 12.85366821 66.86849976 C10.36419637 61.47420622 10.36419637 61.47420622 9.16442871 58.84277344 C8.33509718 57.02420848 7.49784077 55.20926372 6.66015625 53.39453125 C6.19230713 52.37206299 5.72445801 51.34959473 5.24243164 50.29614258 C4.21182913 47.86682108 4.21182913 47.86682108 2 47 Z " fill="#989898" transform="translate(2088,1151)"/>
<path d="M0 0 C39.93 0 79.86 0 121 0 C121 6.93 121 13.86 121 21 C88.33 21 55.66 21 22 21 C22 42.45 22 63.9 22 86 C54.34 86 86.68 86 120 86 C120 92.93 120 99.86 120 107 C87.66 107 55.32 107 22 107 C22 133.73 22 160.46 22 188 C54.34 188 86.68 188 120 188 C120 194.93 120 201.86 120 209 C80.4 209 40.8 209 0 209 C0 140.03 0 71.06 0 0 Z " fill="#989898" transform="translate(3182,1151)"/>
<path d="M0 0 C39.6 0 79.2 0 120 0 C120 6.93 120 13.86 120 21 C87.66 21 55.32 21 22 21 C22 42.45 22 63.9 22 86 C54.01 86 86.02 86 119 86 C119 92.93 119 99.86 119 107 C86.99 107 54.98 107 22 107 C22 133.73 22 160.46 22 188 C54.01 188 86.02 188 119 188 C119 194.93 119 201.86 119 209 C79.73 209 40.46 209 0 209 C0 140.03 0 71.06 0 0 Z " fill="#06ACB9" transform="translate(5579,1151)"/>
<path d="M0 0 C39.6 0 79.2 0 120 0 C120 6.93 120 13.86 120 21 C87.66 21 55.32 21 22 21 C22 42.45 22 63.9 22 86 C54.01 86 86.02 86 119 86 C119 92.93 119 99.86 119 107 C86.99 107 54.98 107 22 107 C22 133.73 22 160.46 22 188 C54.01 188 86.02 188 119 188 C119 194.93 119 201.86 119 209 C79.73 209 40.46 209 0 209 C0 140.03 0 71.06 0 0 Z " fill="#989898" transform="translate(3546,1151)"/>
<path d="M0 0 C98.42694567 0 98.42694567 0 116.75 17 C128.81882752 29.69039803 131.6155344 44.3709618 131.25 61.36328125 C130.71240534 74.62305345 125.75596446 86.01110365 116.640625 95.609375 C92.15691997 117.77509612 52.25710029 113 22 113 C22 144.68 22 176.36 22 209 C14.74 209 7.48 209 0 209 C0 140.03 0 71.06 0 0 Z M22 21 C22 44.1 22 67.2 22 91 C61.19177582 94.69461628 61.19177582 94.69461628 97.44140625 82.54296875 C104.20030006 75.85183328 108.31272509 67.04899299 109 57.61328125 C109 47.19134588 105.03194058 38.42122383 98.046875 30.82421875 C83.42611443 17.79388442 59.19934657 20.85289882 41.0625 20.9375 C34.771875 20.958125 28.48125 20.97875 22 21 Z " fill="#989898" transform="translate(2432,1151)"/>
<path d="M0 0 C7.26 0 14.52 0 22 0 C22 62.04 22 124.08 22 188 C48.4 188 74.8 188 102 188 C102 194.93 102 201.86 102 209 C68.34 209 34.68 209 0 209 C0 140.03 0 71.06 0 0 Z " fill="#06ACB9" transform="translate(4276,1151)"/>
<path d="M0 0 C6.93 0 13.86 0 21 0 C21 62.04 21 124.08 21 188 C47.73 188 74.46 188 102 188 C102 194.93 102 201.86 102 209 C68.34 209 34.68 209 0 209 C0 140.03 0 71.06 0 0 Z " fill="#06ACB9" transform="translate(4426,1151)"/>
<path d="M0 0 C7.26 0 14.52 0 22 0 C22 68.97 22 137.94 22 209 C14.74 209 7.48 209 0 209 C0 140.03 0 71.06 0 0 Z " fill="#06ACB9" transform="translate(4669,1151)"/>
<path d="M0 0 C7.26 0 14.52 0 22 0 C22 68.97 22 137.94 22 209 C14.74 209 7.48 209 0 209 C0 140.03 0 71.06 0 0 Z " fill="#989898" transform="translate(2235,1151)"/>
<path d="M0 0 C26.07 0 52.14 0 79 0 C79 6.27 79 12.54 79 19 C52.93 19 26.86 19 0 19 C0 12.73 0 6.46 0 0 Z " fill="#989898" transform="translate(2304,1272)"/>
</svg>
